<svg width="375" height="503" viewBox="0 0 375 503" fill="none" xmlns="http://www.w3.org/2000/svg">
<g opacity="0.5">
<path d="M46.7352 313.239C46.394 303.003 46.0527 292.425 46.0527 282.188C46.0527 277.07 46.0527 271.952 46.0527 266.492V250.796V235.1C46.0527 229.982 46.0527 224.864 46.0527 219.404C46.0527 209.167 46.394 198.59 46.7352 188.353C47.0764 198.59 47.4176 209.167 47.4176 219.404C47.4176 224.522 47.4176 229.641 47.4176 235.1V250.796V266.492C47.4176 271.611 47.4176 276.729 47.4176 282.188C47.0764 292.425 47.0764 302.662 46.7352 313.239Z" fill="#341931"/>
<path d="M49.1236 358.963C48.7824 340.878 48.4412 322.793 48.4412 304.709C48.4412 295.837 48.4412 286.624 48.4412 277.752V250.796V223.84C48.4412 214.968 48.4412 205.755 48.4412 196.884C48.4412 178.799 48.7824 160.714 49.1236 142.63C49.4648 160.714 49.806 178.799 49.806 196.884C49.806 205.755 49.806 214.968 49.806 223.84V250.796V277.752C49.806 286.624 49.806 295.837 49.806 304.709C49.806 322.793 49.4648 340.878 49.1236 358.963Z" fill="#341931"/>
<path d="M51.8534 413.899C51.5121 400.25 51.5121 386.601 51.5121 372.953L51.1709 332.006C51.1709 304.709 50.8297 277.752 50.8297 250.455C50.8297 223.157 50.8297 196.201 51.1709 168.904L51.5121 127.957C51.5121 114.308 51.8534 100.66 51.8534 87.0109C52.1946 100.66 52.1946 114.308 52.1946 127.957L52.5358 168.904C52.5358 196.201 52.877 223.157 52.877 250.455C52.877 277.752 52.877 304.709 52.5358 332.006L52.1946 372.953C52.1946 386.943 52.1946 400.25 51.8534 413.899Z" fill="#341931"/>
<path d="M54.5832 450.409C54.242 433.69 54.242 416.97 54.242 400.591L53.9008 350.773C53.9008 334.054 53.9008 317.334 53.9008 300.955V251.137V201.319C53.9008 184.6 53.9008 167.88 53.9008 151.501L54.242 101.683C54.242 84.9636 54.5832 68.2439 54.5832 51.8654C54.9244 68.5851 54.9244 85.3049 54.9244 101.683L55.2656 151.501C55.2656 168.221 55.2656 184.941 55.2656 201.319V251.137V300.955C55.2656 317.675 55.2656 334.395 55.2656 350.773L54.9244 400.591C54.5832 417.311 54.5832 434.031 54.5832 450.409Z" fill="#341931"/>
<path d="M56.9716 433.69C56.6304 418.335 56.6304 403.321 56.6304 387.966L56.2892 342.243C56.2892 311.874 55.948 281.165 55.948 250.796C55.948 220.428 55.948 189.718 56.2892 159.349L56.6304 113.626C56.6304 98.2712 56.9716 83.2575 56.9716 67.9027C57.3129 83.2575 57.3129 98.2712 57.3129 113.626L57.6541 159.349C57.6541 189.718 57.9953 220.428 57.9953 250.796C57.9953 281.165 57.9953 311.874 57.6541 342.243L57.3129 387.966C57.3129 403.321 57.3129 418.676 56.9716 433.69Z" fill="#341931"/>
<path d="M59.7015 411.169C59.3603 397.862 59.3603 384.554 59.3603 370.905L59.0191 330.641C59.0191 304.026 58.6779 277.07 58.6779 250.455C58.6779 223.84 58.6779 196.884 59.0191 170.268L59.3603 130.346C59.3603 117.038 59.7015 103.731 59.7015 90.0819C60.0427 103.389 60.0427 116.697 60.0427 130.346L60.3839 170.61C60.3839 197.225 60.7251 224.181 60.7251 250.796C60.7251 277.411 60.7251 304.368 60.3839 330.983L60.0427 371.247C60.0427 384.554 60.0427 397.862 59.7015 411.169Z" fill="#341931"/>
<path d="M62.4312 387.284C62.09 364.422 61.7488 341.902 61.7488 319.04C61.7488 307.78 61.7488 296.178 61.7488 284.918V250.796V216.674C61.7488 205.414 61.7488 193.813 61.7488 182.552C61.7488 159.691 62.09 137.17 62.4312 114.308C62.7724 137.17 63.1136 159.691 63.1136 182.552C63.1136 193.813 63.1136 205.414 63.1136 216.674V250.796V284.918C63.1136 296.178 63.1136 307.78 63.1136 319.04C62.7724 341.902 62.7724 364.422 62.4312 387.284Z" fill="#341931"/>
<path d="M64.8198 368.176C64.4785 348.726 64.1373 329.277 64.1373 309.486C64.1373 299.591 64.1373 290.036 64.1373 280.141V250.796V221.451C64.1373 211.556 64.1373 202.002 64.1373 192.106C64.1373 172.657 64.4785 153.207 64.8198 133.417C65.161 152.866 65.5022 172.316 65.5022 192.106C65.5022 202.002 65.5022 211.556 65.5022 221.451V250.796V280.141C65.5022 290.036 65.5022 299.591 65.5022 309.486C65.5022 328.935 65.161 348.385 64.8198 368.176Z" fill="#341931"/>
<path d="M67.5495 348.044C67.2083 332.006 66.8671 315.628 66.8671 299.591C66.8671 291.401 66.8671 283.553 66.8671 275.364V251.137V226.911C66.8671 218.722 66.8671 210.874 66.8671 202.684C66.8671 186.647 67.2083 170.268 67.5495 154.231C67.8907 170.268 68.2319 186.647 68.2319 202.684C68.2319 210.874 68.2319 218.722 68.2319 226.911V251.137V275.364C68.2319 283.553 68.2319 291.401 68.2319 299.591C68.2319 315.628 67.8907 331.665 67.5495 348.044Z" fill="#341931"/>
<path d="M70.2792 358.963C69.938 340.878 69.5968 322.793 69.5968 304.709C69.5968 295.837 69.5968 286.624 69.5968 277.752V250.796V223.84C69.5968 214.968 69.5968 205.755 69.5968 196.884C69.5968 178.799 69.938 160.714 70.2792 142.63C70.6204 160.714 70.9616 178.799 70.9616 196.884C70.9616 205.755 70.9616 214.968 70.9616 223.84V250.796V277.752C70.9616 286.624 70.9616 295.837 70.9616 304.709C70.6204 322.793 70.6204 340.878 70.2792 358.963Z" fill="#341931"/>
<path d="M72.6678 371.929C72.3266 351.797 71.9854 331.665 71.9854 311.192C71.9854 300.955 71.9854 291.06 71.9854 280.823V250.455V220.086C71.9854 209.85 71.9854 199.954 71.9854 189.718C71.9854 169.586 72.3266 149.454 72.6678 128.981C73.009 149.113 73.3502 169.245 73.3502 189.718C73.3502 199.954 73.3502 209.85 73.3502 220.086V250.455V280.823C73.3502 291.06 73.3502 300.955 73.3502 311.192C73.3502 331.665 73.009 351.797 72.6678 371.929Z" fill="#341931"/>
<path d="M75.3975 387.284C75.0563 364.422 74.7151 341.902 74.7151 319.04C74.7151 307.78 74.7151 296.178 74.7151 284.918V250.796V216.674C74.7151 205.414 74.7151 193.813 74.7151 182.552C74.7151 159.691 75.0563 137.17 75.3975 114.308C75.7387 137.17 76.0799 159.691 76.0799 182.552C76.0799 193.813 76.0799 205.414 76.0799 216.674V250.796V284.918C76.0799 296.178 76.0799 307.78 76.0799 319.04C76.0799 341.902 75.7387 364.422 75.3975 387.284Z" fill="#341931"/>
<path d="M78.1272 379.436C77.786 357.939 77.4448 336.442 77.4448 315.287C77.4448 304.709 77.4448 293.79 77.4448 283.212V251.137V219.063C77.4448 208.485 77.4448 197.566 77.4448 186.988C77.4448 165.491 77.786 143.995 78.1272 122.839C78.4684 144.336 78.8097 165.833 78.8097 186.988C78.8097 197.566 78.8097 208.485 78.8097 219.063V251.137V283.212C78.8097 293.79 78.8097 304.709 78.8097 315.287C78.4684 336.442 78.4684 357.939 78.1272 379.436Z" fill="#341931"/>
<path d="M80.5158 364.763C80.1746 345.655 79.8334 326.888 79.8334 307.78C79.8334 298.226 79.8334 288.672 79.8334 279.459V251.137V222.816C79.8334 213.262 79.8334 203.708 79.8334 194.495C79.8334 175.387 80.1746 156.62 80.5158 137.511C80.857 156.62 81.1982 175.387 81.1982 194.495C81.1982 204.049 81.1982 213.603 81.1982 222.816V251.137V279.459C81.1982 289.013 81.1982 298.567 81.1982 307.78C81.1982 326.888 80.857 345.655 80.5158 364.763Z" fill="#341931"/>
<path d="M83.2457 354.527C82.9044 337.125 82.5632 320.064 82.5632 302.662C82.5632 294.131 82.5632 285.259 82.5632 276.729V250.796V224.864C82.5632 216.333 82.5632 207.461 82.5632 198.931C82.5632 181.529 82.9044 164.468 83.2457 147.066C83.5869 164.468 83.9281 181.529 83.9281 198.931C83.9281 207.461 83.9281 216.333 83.9281 224.864V250.796V276.729C83.9281 285.259 83.9281 294.131 83.9281 302.662C83.9281 320.064 83.5869 337.125 83.2457 354.527Z" fill="#341931"/>
<path d="M85.9754 340.196C85.6342 325.182 85.293 310.51 85.293 295.496C85.293 287.989 85.293 280.482 85.293 272.975V250.455V227.934C85.293 220.428 85.293 212.921 85.293 205.414C85.293 190.4 85.6342 175.728 85.9754 160.714C86.3166 175.728 86.6578 190.4 86.6578 205.414C86.6578 212.921 86.6578 220.428 86.6578 227.934V250.455V272.975C86.6578 280.482 86.6578 287.989 86.6578 295.496C86.3166 310.51 86.3166 325.182 85.9754 340.196Z" fill="#341931"/>
<path d="M88.3638 325.182C88.0226 312.898 87.6814 300.614 87.6814 287.989C87.6814 281.847 87.6814 275.705 87.6814 269.563V251.137V232.712C87.6814 226.57 87.6814 220.428 87.6814 214.286C87.6814 202.002 88.0226 189.718 88.3638 177.093C88.705 189.377 89.0462 201.661 89.0462 214.286C89.0462 220.428 89.0462 226.57 89.0462 232.712V251.137V269.563C89.0462 275.705 89.0462 281.847 89.0462 287.989C89.0462 300.273 88.705 312.557 88.3638 325.182Z" fill="#341931"/>
<path d="M91.0936 303.003C90.7523 294.131 90.4111 285.601 90.4111 276.729C90.4111 272.293 90.4111 267.857 90.4111 263.762V250.796V237.83C90.4111 233.394 90.4111 228.958 90.4111 224.863C90.4111 215.992 90.7523 207.461 91.0936 198.59C91.4348 207.461 91.776 215.992 91.776 224.863C91.776 229.299 91.776 233.735 91.776 237.83V250.796V263.762C91.776 268.198 91.776 272.634 91.776 276.729C91.776 285.601 91.4348 294.472 91.0936 303.003Z" fill="#341931"/>
<path d="M93.8233 285.601C93.4821 279.8 93.1409 273.999 93.1409 268.198C93.1409 265.469 93.1409 262.398 93.1409 259.668V251.137V242.607C93.1409 239.877 93.1409 236.806 93.1409 234.076C93.1409 228.276 93.4821 222.475 93.8233 216.674C94.1645 222.475 94.5057 228.276 94.5057 234.076C94.5057 236.806 94.5057 239.877 94.5057 242.607V251.137V259.668C94.5057 262.398 94.5057 265.469 94.5057 268.198C94.1645 273.999 94.1645 279.8 93.8233 285.601Z" fill="#341931"/>
<path d="M96.2119 274.682C95.8707 270.587 95.8707 266.833 95.5294 262.739C95.5294 258.644 95.1882 254.891 95.1882 250.796C95.1882 246.702 95.1882 242.948 95.5294 238.854C95.5294 234.759 95.8707 231.005 96.2119 226.911C96.5531 231.005 96.8943 234.759 96.8943 238.854C96.8943 242.948 97.2355 246.702 97.2355 250.796C97.2355 254.891 97.2355 258.644 96.8943 262.739C96.8943 266.833 96.5531 270.587 96.2119 274.682Z" fill="#341931"/>
<path d="M98.9416 266.151C98.6004 263.763 98.2592 261.033 98.2592 258.644C98.2592 256.256 97.918 253.526 97.918 251.137C97.918 248.749 97.918 246.019 98.2592 243.631C98.2592 241.242 98.6004 238.512 98.9416 236.124C99.2828 238.512 99.6241 241.242 99.6241 243.631C99.6241 246.019 99.9652 248.749 99.9652 251.137C99.9652 253.526 99.9652 256.256 99.6241 258.644C99.6241 261.033 99.2828 263.421 98.9416 266.151Z" fill="#341931"/>
<path d="M101.671 274.682C101.33 270.587 100.989 266.833 100.989 262.739C100.989 258.644 100.648 254.891 100.648 250.796C100.648 246.702 100.648 242.948 100.989 238.854C100.989 234.759 101.33 231.005 101.671 226.911C102.013 231.005 102.354 234.759 102.354 238.854C102.354 242.948 102.695 246.702 102.695 250.796C102.695 254.891 102.695 258.644 102.354 262.739C102.013 266.833 102.013 270.587 101.671 274.682Z" fill="#341931"/>
<path d="M104.06 289.354C103.719 282.871 103.378 276.729 103.378 270.246C103.378 267.175 103.378 263.762 103.378 260.692V251.137V241.583C103.378 238.512 103.378 235.1 103.378 232.029C103.378 225.546 103.719 219.404 104.06 212.921C104.401 219.404 104.742 225.546 104.742 232.029C104.742 235.1 104.742 238.512 104.742 241.583V251.137V260.692C104.742 263.762 104.742 267.175 104.742 270.246C104.742 276.388 104.401 282.871 104.06 289.354Z" fill="#341931"/>
<path d="M106.79 298.908C106.449 291.06 106.107 282.871 106.107 275.023C106.107 270.928 106.107 267.175 106.107 263.08V251.137V239.195C106.107 235.1 106.107 231.347 106.107 227.252C106.107 219.404 106.449 211.215 106.79 203.367C107.131 211.215 107.472 219.404 107.472 227.252C107.472 231.347 107.472 235.1 107.472 239.195V251.137V263.08C107.472 267.175 107.472 270.928 107.472 275.023C107.472 282.871 107.131 291.06 106.79 298.908Z" fill="#341931"/>
<path d="M109.519 289.354C109.178 282.871 108.837 276.729 108.837 270.246C108.837 267.175 108.837 263.762 108.837 260.692V251.137V241.583C108.837 238.512 108.837 235.1 108.837 232.029C108.837 225.546 109.178 219.404 109.519 212.921C109.861 219.404 110.202 225.546 110.202 232.029C110.202 235.1 110.202 238.512 110.202 241.583V251.137V260.692C110.202 263.762 110.202 267.175 110.202 270.246C109.861 276.388 109.861 282.871 109.519 289.354Z" fill="#341931"/>
<path d="M111.908 274.682C111.567 270.587 111.225 266.833 111.225 262.739C111.225 258.644 110.884 254.891 110.884 250.796C110.884 246.702 110.884 242.948 111.225 238.854C111.225 234.759 111.567 231.005 111.908 226.911C112.249 231.005 112.59 234.759 112.59 238.854C112.59 242.948 112.932 246.702 112.932 250.796C112.932 254.891 112.932 258.644 112.59 262.739C112.59 266.833 112.59 270.587 111.908 274.682Z" fill="#341931"/>
<path d="M114.638 266.151C114.297 263.763 113.955 261.033 113.955 258.644C113.955 256.256 113.614 253.526 113.614 251.137C113.614 248.749 113.614 246.019 113.955 243.631C113.955 241.242 114.297 238.512 114.638 236.124C114.979 238.512 115.32 241.242 115.32 243.631C115.32 246.019 115.661 248.749 115.661 251.137C115.661 253.526 115.661 256.256 115.32 258.644C115.32 261.033 114.979 263.421 114.638 266.151Z" fill="#341931"/>
<path d="M117.368 258.303C117.026 256.938 116.685 255.914 116.685 254.55C116.685 253.185 116.344 252.161 116.344 250.796C116.344 249.431 116.344 248.408 116.685 247.043C116.685 245.678 117.026 244.654 117.368 243.289C117.709 244.654 118.05 245.678 118.05 247.043C118.05 248.408 118.391 249.431 118.391 250.796C118.391 252.161 118.391 253.185 118.05 254.55C117.709 255.573 117.709 256.938 117.368 258.303Z" fill="#341931"/>
<path d="M119.756 266.151C119.415 263.763 119.074 261.033 119.074 258.644C119.074 256.256 118.732 253.526 118.732 251.137C118.732 248.749 118.732 246.019 119.074 243.631C119.074 241.242 119.415 238.512 119.756 236.124C120.097 238.512 120.439 241.242 120.439 243.631C120.439 246.019 120.78 248.749 120.78 251.137C120.78 253.526 120.78 256.256 120.439 258.644C120.439 261.033 120.439 263.421 119.756 266.151Z" fill="#341931"/>
<path d="M122.486 280.141C122.145 275.364 121.803 270.246 121.803 265.469C121.803 263.08 121.803 260.692 121.803 258.303V251.137C121.803 246.36 121.803 241.242 122.145 236.465C122.145 231.688 122.486 226.57 122.827 221.793C123.168 226.57 123.509 231.688 123.509 236.465C123.509 241.242 123.851 246.36 123.851 251.137V258.303C123.851 260.692 123.851 263.08 123.851 265.469C123.168 270.246 122.827 275.364 122.486 280.141Z" fill="#341931"/>
<path d="M125.216 294.813C124.874 287.648 124.533 280.141 124.533 272.975C124.533 269.222 124.533 265.81 124.533 262.056V251.137V240.218C124.533 236.465 124.533 233.053 124.533 229.299C124.533 222.134 124.874 214.627 125.216 207.461C125.557 214.627 125.898 222.134 125.898 229.299C125.898 233.053 125.898 236.465 125.898 240.218V251.137V262.056C125.898 265.81 125.898 269.222 125.898 272.975C125.557 280.141 125.557 287.307 125.216 294.813Z" fill="#341931"/>
<path d="M127.604 325.182C127.263 312.898 126.922 300.614 126.922 287.989C126.922 281.847 126.922 275.705 126.922 269.563V251.137V232.712C126.922 226.57 126.922 220.428 126.922 214.286C126.922 202.002 127.263 189.718 127.604 177.093C127.945 189.377 128.286 201.661 128.286 214.286C128.286 220.428 128.286 226.57 128.286 232.712V251.137V269.563C128.286 275.705 128.286 281.847 128.286 287.989C128.286 300.273 128.286 312.557 127.604 325.182Z" fill="#341931"/>
<path d="M130.334 361.351C129.993 342.925 129.651 324.5 129.651 306.074C129.651 296.861 129.651 287.648 129.651 278.435V250.796V223.157C129.651 213.945 129.651 204.732 129.651 195.519C129.651 177.093 129.993 158.667 130.334 140.241C130.675 158.667 131.016 177.093 131.016 195.519C131.016 204.732 131.016 213.945 131.016 223.157V250.796V278.435C131.016 287.648 131.016 296.861 131.016 306.074C131.016 324.5 130.675 342.925 130.334 361.351Z" fill="#341931"/>
<path d="M133.064 393.085C132.722 381.142 132.722 369.54 132.722 357.598L132.381 322.111C132.381 298.567 132.04 274.682 132.04 251.137C132.04 227.593 132.04 203.708 132.381 180.164L132.722 143.995C132.722 132.052 133.064 120.45 133.064 108.508C133.064 120.45 133.405 132.393 133.405 143.995L133.746 179.481C133.746 203.025 134.087 226.911 134.087 250.455C134.087 273.999 134.087 297.884 133.746 321.429L133.405 357.598C133.405 369.54 133.064 381.142 133.064 393.085Z" fill="#341931"/>
<path d="M135.793 421.065C135.452 406.733 135.452 392.743 135.452 378.412L135.111 335.76C135.111 307.439 134.77 279.117 134.77 250.796C134.77 222.475 134.77 194.154 135.111 165.833L135.452 123.18C135.452 108.849 135.793 94.8589 135.793 80.5277C136.135 94.8589 136.135 108.849 136.135 123.18L136.476 165.833C136.476 194.154 136.817 222.475 136.817 250.796C136.817 279.117 136.817 307.439 136.476 335.76L136.135 378.412C135.793 392.743 135.793 406.733 135.793 421.065Z" fill="#341931"/>
<path d="M138.182 407.075C137.841 394.108 137.841 381.142 137.841 368.176L137.499 329.277C137.499 303.344 137.158 277.07 137.158 251.137C137.158 225.205 137.158 198.931 137.499 172.998L137.841 133.758C137.841 120.792 138.182 107.825 138.182 94.859C138.523 107.825 138.523 120.792 138.523 133.758L138.864 172.657C138.864 198.59 139.205 224.864 139.205 250.796C139.205 276.729 139.205 303.003 138.864 328.935L138.523 367.834C138.523 381.142 138.523 394.108 138.182 407.075Z" fill="#341931"/>
<path d="M140.912 379.436C140.57 357.939 140.229 336.442 140.229 315.287C140.229 304.709 140.229 293.79 140.229 283.212V251.137V219.063C140.229 208.485 140.229 197.566 140.229 186.988C140.229 165.491 140.57 143.995 140.912 122.839C141.253 144.336 141.594 165.833 141.594 186.988C141.594 197.566 141.594 208.485 141.594 219.063V251.137V283.212C141.594 293.79 141.594 304.709 141.594 315.287C141.594 336.442 141.253 357.939 140.912 379.436Z" fill="#341931"/>
<path d="M143.641 397.862C143.3 385.578 143.3 373.294 143.3 361.01L142.959 324.158C142.959 299.591 142.618 275.023 142.618 250.455C142.618 225.887 142.618 201.319 142.959 176.752V140.582C142.959 128.298 143.3 116.015 143.3 103.731C143.641 116.015 143.641 128.298 143.983 140.582L144.324 177.434C144.324 202.002 144.665 226.57 144.665 251.137C144.665 275.705 144.665 300.273 144.324 324.841L143.983 361.692C143.641 373.294 143.641 385.578 143.641 397.862Z" fill="#341931"/>
<path d="M146.03 371.929C145.689 351.797 145.347 331.665 145.347 311.192C145.347 300.955 145.347 291.06 145.347 280.823V250.455V220.086C145.347 209.85 145.347 199.954 145.347 189.718C145.347 169.586 145.689 149.454 146.03 128.981C146.371 149.113 146.712 169.245 146.712 189.718C146.712 199.954 146.712 209.85 146.712 220.086V250.455V280.823C146.712 291.06 146.712 300.955 146.712 311.192C146.712 331.665 146.371 351.797 146.03 371.929Z" fill="#341931"/>
<path d="M148.76 348.044C148.418 332.006 148.077 315.628 148.077 299.591C148.077 291.401 148.077 283.553 148.077 275.364V251.137V226.911C148.077 218.722 148.077 210.874 148.077 202.684C148.077 186.647 148.418 170.268 148.76 154.231C149.101 170.268 149.442 186.647 149.442 202.684C149.442 210.874 149.442 218.722 149.442 226.911V251.137V275.364C149.442 283.553 149.442 291.401 149.442 299.591C149.442 315.628 149.101 331.665 148.76 348.044Z" fill="#341931"/>
<path d="M151.489 315.287C151.148 304.709 150.807 293.79 150.807 283.212C150.807 277.752 150.807 272.634 150.807 267.175V251.137V235.1C150.807 229.641 150.807 224.522 150.807 219.063C150.807 208.485 151.148 197.566 151.489 186.988C151.831 197.566 152.172 208.485 152.172 219.063C152.172 224.522 152.172 229.641 152.172 235.1V251.137V267.175C152.172 272.634 152.172 277.752 152.172 283.212C151.831 293.79 151.831 304.709 151.489 315.287Z" fill="#341931"/>
<path d="M153.878 340.196C153.537 325.182 153.196 310.51 153.196 295.496C153.196 287.989 153.196 280.482 153.196 272.975V250.455V227.934C153.196 220.428 153.196 212.921 153.196 205.414C153.196 190.4 153.537 175.728 153.878 160.714C154.219 175.728 154.56 190.4 154.56 205.414C154.56 212.921 154.56 220.428 154.56 227.934V250.455V272.975C154.56 280.482 154.56 287.989 154.56 295.496C154.56 310.51 154.219 325.182 153.878 340.196Z" fill="#341931"/>
<path d="M156.608 371.929C156.266 351.797 155.925 331.665 155.925 311.192C155.925 300.955 155.925 291.06 155.925 280.823V250.455V220.086C155.925 209.85 155.925 199.954 155.925 189.718C155.925 169.586 156.266 149.454 156.608 128.981C156.949 149.113 157.29 169.245 157.29 189.718C157.29 199.954 157.29 209.85 157.29 220.086V250.455V280.823C157.29 291.06 157.29 300.955 157.29 311.192C157.29 331.665 156.949 351.797 156.608 371.929Z" fill="#341931"/>
<path d="M159.337 340.196C158.996 325.182 158.655 310.51 158.655 295.496C158.655 287.989 158.655 280.482 158.655 272.975V250.455V227.934C158.655 220.428 158.655 212.921 158.655 205.414C158.655 190.4 158.996 175.728 159.337 160.714C159.679 175.728 160.02 190.4 160.02 205.414C160.02 212.921 160.02 220.428 160.02 227.934V250.455V272.975C160.02 280.482 160.02 287.989 160.02 295.496C159.679 310.51 159.679 325.182 159.337 340.196Z" fill="#341931"/>
<path d="M161.726 303.003C161.385 294.131 161.044 285.601 161.044 276.729C161.044 272.293 161.044 267.857 161.044 263.762V250.796V237.83C161.044 233.394 161.044 228.958 161.044 224.863C161.044 215.992 161.385 207.461 161.726 198.59C162.067 207.461 162.408 215.992 162.408 224.863C162.408 229.299 162.408 233.735 162.408 237.83V250.796V263.762C162.408 268.198 162.408 272.634 162.408 276.729C162.408 285.601 162.067 294.472 161.726 303.003Z" fill="#341931"/>
<path d="M164.456 280.141C164.115 275.364 163.773 270.246 163.773 265.469C163.773 263.08 163.773 260.692 163.773 258.303V251.137C163.773 246.36 163.773 241.242 164.115 236.465C164.115 231.688 164.456 226.57 164.797 221.793C165.138 226.57 165.479 231.688 165.479 236.465C165.479 241.242 165.821 246.36 165.821 251.137V258.303C165.821 260.692 165.821 263.08 165.821 265.469C165.138 270.246 164.797 275.364 164.456 280.141Z" fill="#341931"/>
<path d="M167.185 266.151C166.844 263.763 166.503 261.033 166.503 258.644C166.503 256.256 166.162 253.526 166.162 251.137C166.162 248.749 166.162 246.019 166.503 243.631C166.503 241.242 166.844 238.512 167.185 236.124C167.527 238.512 167.868 241.242 167.868 243.631C167.868 246.019 168.209 248.749 168.209 251.137C168.209 253.526 168.209 256.256 167.868 258.644C167.527 261.033 167.527 263.421 167.185 266.151Z" fill="#341931"/>
<path d="M169.574 277.07C169.233 272.634 168.892 268.198 168.892 263.763C168.892 261.715 168.892 259.327 168.892 257.279V250.796C168.892 246.36 168.892 241.924 169.233 237.489C169.233 233.053 169.574 228.617 169.915 224.181C170.256 228.617 170.598 233.053 170.598 237.489C170.598 241.924 170.939 246.36 170.939 250.796V257.279C170.939 259.327 170.939 261.715 170.939 263.763C170.256 268.54 169.915 272.975 169.574 277.07Z" fill="#341931"/>
<path d="M172.304 298.908C171.963 291.06 171.621 282.871 171.621 275.023C171.621 270.928 171.621 267.175 171.621 263.08V251.137V239.195C171.621 235.1 171.621 231.347 171.621 227.252C171.621 219.404 171.963 211.215 172.304 203.367C172.645 211.215 172.986 219.404 172.986 227.252C172.986 231.347 172.986 235.1 172.986 239.195V251.137V263.08C172.986 267.175 172.986 270.928 172.986 275.023C172.986 282.871 172.645 291.06 172.304 298.908Z" fill="#341931"/>
<path d="M175.034 318.699C174.692 307.439 174.351 296.178 174.351 284.577C174.351 278.776 174.351 273.317 174.351 267.516V250.455V233.394C174.351 227.593 174.351 222.134 174.351 216.333C174.351 205.073 174.692 193.813 175.034 182.211C175.375 193.471 175.716 204.732 175.716 216.333C175.716 222.134 175.716 227.593 175.716 233.394V250.455V267.516C175.716 273.317 175.716 278.776 175.716 284.577C175.375 296.178 175.375 307.439 175.034 318.699Z" fill="#341931"/>
<path d="M177.422 307.097C177.081 297.543 176.74 288.33 176.74 278.776C176.74 273.999 176.74 269.222 176.74 264.786V250.796V236.806C176.74 232.029 176.74 227.252 176.74 222.816C176.74 213.262 177.081 204.049 177.422 194.495C177.763 204.049 178.105 213.262 178.105 222.816C178.105 227.593 178.105 232.37 178.105 236.806V250.796V264.786C178.105 269.563 178.105 274.34 178.105 278.776C178.105 288.33 177.763 297.884 177.422 307.097Z" fill="#341931"/>
<path d="M180.152 290.719C179.811 284.236 179.469 277.411 179.469 270.928C179.469 267.516 179.469 264.445 179.469 261.033V251.137V241.242C179.469 237.83 179.469 234.759 179.469 231.347C179.469 224.863 179.811 218.039 180.152 211.556C180.493 218.039 180.834 224.863 180.834 231.347C180.834 234.759 180.834 237.83 180.834 241.242V251.137V261.033C180.834 264.445 180.834 267.516 180.834 270.928C180.834 277.411 180.493 283.894 180.152 290.719Z" fill="#341931"/>
<path d="M182.882 277.07C182.54 272.634 182.199 268.198 182.199 263.763C182.199 261.715 182.199 259.327 182.199 257.279V250.796C182.199 246.36 182.199 241.924 182.54 237.489C182.54 233.053 182.882 228.617 183.223 224.181C183.564 228.617 183.905 233.053 183.905 237.489C183.905 241.924 184.246 246.36 184.246 250.796V257.279C184.246 259.327 184.246 261.715 184.246 263.763C183.223 268.54 183.223 272.975 182.882 277.07Z" fill="#341931"/>
<path d="M185.27 268.881C184.929 265.81 184.588 262.739 184.588 260.009C184.588 256.938 184.246 253.867 184.246 251.137C184.246 248.066 184.246 244.995 184.588 242.266C184.588 239.195 184.929 236.124 185.27 233.394C185.611 236.465 185.953 239.536 185.953 242.266C185.953 245.337 186.294 248.408 186.294 251.137C186.294 254.208 186.294 257.279 185.953 260.009C185.953 262.739 185.611 265.81 185.27 268.881Z" fill="#341931"/>
<path d="M188 262.398C187.659 260.35 187.318 258.644 187.318 256.597C187.318 254.55 186.976 252.843 186.976 250.796C186.976 248.749 186.976 247.043 187.318 244.995C187.318 242.948 187.659 241.242 188 239.195C188.341 241.242 188.682 242.948 188.682 244.995C188.682 247.043 189.024 248.749 189.024 250.796C189.024 252.843 189.024 254.55 188.682 256.597C188.682 258.644 188.341 260.35 188 262.398Z" fill="#341931"/>
<path d="M2.03535 179.481C2.37656 191.424 2.71779 203.367 2.71779 214.968C2.71779 220.769 2.71779 226.911 2.71779 232.712V250.455V268.198C2.71779 273.999 2.71779 280.141 2.71779 285.942C2.71779 297.884 2.37657 309.827 2.03535 321.429C1.69414 309.486 1.35291 297.543 1.35291 285.942C1.35291 280.141 1.35291 273.999 1.35291 268.198V250.455V232.712C1.35291 226.911 1.35291 220.769 1.35291 214.968C1.35291 203.367 1.69414 191.424 2.03535 179.481Z" fill="#341931"/>
<path d="M4.76521 153.549C5.10641 169.586 5.44765 185.965 5.44765 202.002C5.44765 210.191 5.44765 218.039 5.44765 226.228V250.455V274.681C5.44765 282.871 5.44765 290.719 5.44765 298.908C5.44765 314.945 5.10643 331.324 4.76521 347.361C4.424 331.324 4.08276 314.945 4.08276 298.908C4.08276 290.719 4.08276 282.871 4.08276 274.681V250.455V226.228C4.08276 218.039 4.08276 210.191 4.08276 202.002C4.08276 185.965 4.424 169.927 4.76521 153.549Z" fill="#341931"/>
<path d="M7.15364 142.63C7.49486 160.714 7.83607 178.799 7.83607 196.884C7.83607 205.755 7.83607 214.968 7.83607 223.84V250.796V277.752C7.83607 286.624 7.83607 295.837 7.83607 304.709C7.83607 322.793 7.49486 340.878 7.15364 358.963C6.81242 340.878 6.47119 322.793 6.47119 304.709C6.47119 295.837 6.47119 286.624 6.47119 277.752V250.796V223.84C6.47119 214.968 6.47119 205.755 6.47119 196.884C6.81242 178.799 6.81242 160.714 7.15364 142.63Z" fill="#341931"/>
<path d="M9.88338 129.663C10.2246 149.795 10.5658 169.927 10.5658 190.4C10.5658 200.637 10.5658 210.532 10.5658 220.769V251.137V281.506C10.5658 291.743 10.5658 301.638 10.5658 311.874C10.5658 332.006 10.2246 352.138 9.88338 372.611C9.54216 352.48 9.20093 332.348 9.20093 311.874C9.20093 301.638 9.20093 291.742 9.20093 281.506V251.137V220.769C9.20093 210.532 9.20093 200.637 9.20093 190.4C9.20093 169.927 9.54216 149.795 9.88338 129.663Z" fill="#341931"/>
<path d="M12.6132 114.308C12.9545 137.17 13.2957 159.691 13.2957 182.552C13.2957 193.813 13.2957 205.414 13.2957 216.674V250.796V284.918C13.2957 296.178 13.2957 307.78 13.2957 319.04C13.2957 341.902 12.9545 364.422 12.6132 387.284C12.272 364.422 11.9308 341.902 11.9308 319.04C11.9308 307.78 11.9308 296.178 11.9308 284.918V250.796V216.674C11.9308 205.414 11.9308 193.813 11.9308 182.552C11.9308 160.032 12.272 137.17 12.6132 114.308Z" fill="#341931"/>
<path d="M15.0018 122.156C15.343 143.653 15.6842 165.15 15.6842 186.306C15.6842 196.884 15.6842 207.803 15.6842 218.38V250.455V282.53C15.6842 293.107 15.6842 304.026 15.6842 314.604C15.6842 336.101 15.343 357.598 15.0018 378.753C14.6606 357.257 14.3193 335.76 14.3193 314.604C14.3193 304.026 14.3193 293.107 14.3193 282.53V250.455V218.38C14.3193 207.803 14.3193 196.884 14.3193 186.306C14.6606 165.15 14.6606 143.653 15.0018 122.156Z" fill="#341931"/>
<path d="M17.7315 136.829C18.0727 155.937 18.414 174.704 18.414 193.813C18.414 203.367 18.414 212.921 18.414 222.134V250.455V278.776C18.414 288.33 18.414 297.884 18.414 307.097C18.414 326.206 18.0728 344.973 17.7315 364.081C17.3903 344.973 17.0491 326.206 17.0491 307.097C17.0491 297.543 17.0491 287.989 17.0491 278.776V250.455V222.134C17.0491 212.58 17.0491 203.026 17.0491 193.813C17.3903 175.045 17.3903 155.937 17.7315 136.829Z" fill="#341931"/>
<path d="M20.4613 147.066C20.8025 164.468 21.1437 181.529 21.1437 198.931C21.1437 207.461 21.1437 216.333 21.1437 224.864V250.796V276.729C21.1437 285.259 21.1437 294.131 21.1437 302.662C21.1437 320.064 20.8025 337.125 20.4613 354.527C20.12 337.125 19.7788 320.064 19.7788 302.662C19.7788 294.131 19.7788 285.259 19.7788 276.729V250.796V224.864C19.7788 216.333 19.7788 207.461 19.7788 198.931C19.7788 181.87 20.12 164.468 20.4613 147.066Z" fill="#341931"/>
<path d="M23.191 161.397C23.5322 176.41 23.8734 191.083 23.8734 206.096C23.8734 213.603 23.8734 221.11 23.8734 228.617V251.137V273.658C23.8734 281.165 23.8734 288.671 23.8734 296.178C23.8734 311.192 23.5322 325.864 23.191 340.878C22.8498 325.864 22.5085 311.192 22.5085 296.178C22.5085 288.671 22.5085 281.165 22.5085 273.658V251.137V228.617C22.5085 221.11 22.5085 213.603 22.5085 206.096C22.5085 191.083 22.8498 176.41 23.191 161.397Z" fill="#341931"/>
<path d="M25.5795 176.752C25.9207 189.035 26.262 201.319 26.262 213.945C26.262 220.086 26.262 226.228 26.262 232.37V250.796V269.222C26.262 275.364 26.262 281.506 26.262 287.648C26.262 299.932 25.9208 312.216 25.5795 324.841C25.2383 312.557 24.8971 300.273 24.8971 287.648C24.8971 281.506 24.8971 275.364 24.8971 269.222V250.796V232.37C24.8971 226.228 24.8971 220.086 24.8971 213.945C25.2383 201.319 25.2383 189.035 25.5795 176.752Z" fill="#341931"/>
<path d="M28.3093 198.59C28.6505 207.461 28.9917 215.992 28.9917 224.864C28.9917 229.299 28.9917 233.735 28.9917 237.83V250.796V263.763C28.9917 268.198 28.9917 272.634 28.9917 276.729C28.9917 285.601 28.6505 294.131 28.3093 303.003C27.968 294.472 27.6268 285.601 27.6268 277.07C27.6268 272.634 27.6268 268.198 27.6268 264.104V251.137V238.171C27.6268 233.735 27.6268 229.299 27.6268 225.205C27.6268 215.992 27.968 207.12 28.3093 198.59Z" fill="#341931"/>
<path d="M31.039 215.992C31.3802 221.793 31.7215 227.593 31.7215 233.394C31.7215 236.124 31.7215 239.195 31.7215 241.924V250.455V258.985C31.7215 261.715 31.7215 264.786 31.7215 267.516C31.7215 273.317 31.3802 279.117 31.039 284.918C30.6978 279.117 30.3566 273.317 30.3566 267.516C30.3566 264.786 30.3566 261.715 30.3566 258.985V250.455V241.924C30.3566 239.195 30.3566 236.124 30.3566 233.394C30.3566 227.593 30.3566 221.793 31.039 215.992Z" fill="#341931"/>
<path d="M33.4276 227.252C33.7688 231.347 34.11 235.1 34.11 239.195C34.11 243.289 34.4512 247.043 34.4512 251.137C34.4512 255.232 34.4512 258.985 34.11 263.08C34.11 267.175 33.7688 270.928 33.4276 275.023C33.0864 270.928 32.7451 267.175 32.7451 263.08C32.7451 258.985 32.4039 255.232 32.4039 251.137C32.4039 247.043 32.4039 243.289 32.7451 239.195C33.0864 235.1 33.0864 231.005 33.4276 227.252Z" fill="#341931"/>
<path d="M36.1573 235.441C36.4985 237.83 36.8397 240.56 36.8397 242.948C36.8397 245.337 37.181 248.066 37.181 250.455C37.181 252.843 37.181 255.573 36.8397 257.962C36.8397 260.35 36.4985 263.08 36.1573 265.469C35.8161 263.08 35.4749 260.35 35.4749 257.962C35.4749 255.573 35.1337 252.843 35.1337 250.455C35.1337 248.066 35.1337 245.337 35.4749 242.948C35.4749 240.56 35.8161 238.171 36.1573 235.441Z" fill="#341931"/>
<path d="M38.887 227.252C39.2283 231.347 39.5695 235.1 39.5695 239.195C39.5695 243.289 39.9107 247.043 39.9107 251.137C39.9107 255.232 39.9107 258.985 39.5695 263.08C39.5695 267.175 39.2283 270.928 38.887 275.023C38.5458 270.928 38.2046 267.175 38.2046 263.08C38.2046 258.985 37.8634 255.232 37.8634 251.137C37.8634 247.043 37.8634 243.289 38.2046 239.195C38.2046 235.1 38.2046 231.005 38.887 227.252Z" fill="#341931"/>
<path d="M41.2756 212.58C41.6168 219.063 41.958 225.205 41.958 231.688C41.958 234.759 41.958 238.171 41.958 241.242V250.796V260.35C41.958 263.421 41.958 266.833 41.958 269.904C41.958 276.388 41.6168 282.53 41.2756 289.013C40.9344 282.53 40.5931 276.388 40.5931 269.904C40.5931 266.833 40.5931 263.421 40.5931 260.35V250.796V241.242C40.5931 238.171 40.5931 234.759 40.5931 231.688C40.9344 225.205 40.9344 218.722 41.2756 212.58Z" fill="#341931"/>
<path d="M44.0054 202.684C44.3466 210.532 44.6879 218.722 44.6879 226.57C44.6879 230.664 44.6879 234.418 44.6879 238.512V250.455V262.398C44.6879 266.492 44.6879 270.246 44.6879 274.34C44.6879 282.188 44.3466 290.378 44.0054 298.226C43.6642 290.378 43.323 282.188 43.323 274.34C43.323 270.246 43.323 266.492 43.323 262.398V250.455V238.512C43.323 234.418 43.323 230.664 43.323 226.57C43.323 218.722 43.6642 210.874 44.0054 202.684Z" fill="#341931"/>
<path d="M329.265 189.718C329.606 199.955 329.947 210.532 329.947 220.769C329.947 225.887 329.947 231.005 329.947 236.465V252.161V267.857C329.947 272.975 329.947 278.094 329.947 283.553C329.947 293.79 329.606 304.368 329.265 314.604C328.923 304.368 328.582 293.79 328.582 283.553C328.582 278.435 328.582 273.317 328.582 267.857V252.161V236.465C328.582 231.347 328.582 226.228 328.582 220.769C328.924 210.532 328.924 200.296 329.265 189.718Z" fill="#341931"/>
<path d="M326.876 143.995C327.217 162.079 327.559 180.164 327.559 198.248C327.559 207.12 327.559 216.333 327.559 225.205V252.161V279.117C327.559 287.989 327.559 297.202 327.559 306.074C327.559 324.158 327.217 342.243 326.876 360.328C326.535 342.243 326.194 324.158 326.194 306.074C326.194 297.202 326.194 287.989 326.194 279.117V252.161V225.205C326.194 216.333 326.194 207.12 326.194 198.248C326.194 180.164 326.535 162.079 326.876 143.995Z" fill="#341931"/>
<path d="M324.146 89.0582C324.488 102.707 324.488 116.356 324.488 130.005L324.829 170.951C324.829 198.248 325.17 225.205 325.17 252.502C325.17 279.8 325.17 306.756 324.829 334.054L324.488 375C324.488 388.649 324.146 402.298 324.146 415.946C323.805 402.298 323.805 388.649 323.805 375L323.464 334.054C323.464 306.756 323.123 279.8 323.123 252.502C323.123 225.205 323.123 198.248 323.464 170.951L323.805 130.005C323.805 116.015 323.805 102.707 324.146 89.0582Z" fill="#341931"/>
<path d="M321.417 52.5478C321.758 69.2675 321.758 85.9873 321.758 102.366L322.099 152.184C322.099 168.904 322.099 185.623 322.099 202.002V251.82V301.638C322.099 318.358 322.099 335.077 322.099 351.456L321.758 401.274C321.758 417.994 321.417 434.713 321.417 451.092C321.075 434.372 321.075 417.652 321.075 401.274L320.734 351.456C320.734 334.736 320.734 318.016 320.734 301.638V251.82V202.002C320.734 185.282 320.734 168.562 320.734 152.184L321.075 102.366C321.417 85.646 321.417 68.9263 321.417 52.5478Z" fill="#341931"/>
<path d="M319.028 69.2675C319.369 84.6224 319.369 99.636 319.369 114.991L319.711 160.714C319.711 191.083 320.052 221.793 320.052 252.161C320.052 282.53 320.052 313.239 319.711 343.608L319.369 389.331C319.369 404.686 319.028 419.7 319.028 435.055C318.687 419.7 318.687 404.686 318.687 389.331L318.346 343.608C318.346 313.239 318.004 282.53 318.004 252.161C318.004 221.793 318.004 191.083 318.346 160.714L318.687 114.991C318.687 99.636 318.687 84.2812 319.028 69.2675Z" fill="#341931"/>
<path d="M316.298 91.788C316.64 105.096 316.64 118.403 316.64 132.052L316.981 172.316C316.981 198.931 317.322 225.887 317.322 252.502C317.322 279.117 317.322 306.074 316.981 332.689L316.64 372.953C316.64 386.26 316.298 399.568 316.298 413.217C315.957 399.909 315.957 386.601 315.957 372.953L315.616 332.689C315.616 306.074 315.275 279.117 315.275 252.502C315.275 225.887 315.275 198.931 315.616 172.316L315.957 132.052C315.957 118.403 315.957 105.096 316.298 91.788Z" fill="#341931"/>
<path d="M313.569 115.673C313.91 138.535 314.251 161.056 314.251 183.917C314.251 195.177 314.251 206.779 314.251 218.039V252.161V286.283C314.251 297.543 314.251 309.145 314.251 320.405C314.251 343.267 313.91 365.787 313.569 388.649C313.227 365.787 312.886 343.267 312.886 320.405C312.886 309.145 312.886 297.543 312.886 286.283V252.161V218.039C312.886 206.779 312.886 195.177 312.886 183.917C313.227 161.056 313.227 138.535 313.569 115.673Z" fill="#341931"/>
<path d="M311.18 134.782C311.521 154.231 311.863 173.681 311.863 193.471C311.863 203.367 311.863 212.921 311.863 222.816V252.161V281.506C311.863 291.401 311.863 300.955 311.863 310.851C311.863 330.3 311.521 349.75 311.18 369.54C310.839 350.091 310.498 330.641 310.498 310.851C310.498 300.955 310.498 291.401 310.498 281.506V252.161V222.816C310.498 212.921 310.498 203.367 310.498 193.471C310.498 174.022 310.839 154.572 311.18 134.782Z" fill="#341931"/>
<path d="M308.45 154.914C308.792 170.951 309.133 187.329 309.133 203.367C309.133 211.556 309.133 219.404 309.133 227.593V251.82V276.046C309.133 284.236 309.133 292.084 309.133 300.273C309.133 316.31 308.791 332.689 308.45 348.726C308.109 332.689 307.768 316.31 307.768 300.273C307.768 292.084 307.768 284.236 307.768 276.046V251.82V227.593C307.768 219.404 307.768 211.556 307.768 203.367C307.768 187.329 308.109 171.292 308.45 154.914Z" fill="#341931"/>
<path d="M305.721 143.995C306.062 162.079 306.403 180.164 306.403 198.248C306.403 207.12 306.403 216.333 306.403 225.205V252.161V279.117C306.403 287.989 306.403 297.202 306.403 306.074C306.403 324.158 306.062 342.243 305.721 360.328C305.379 342.243 305.038 324.158 305.038 306.074C305.038 297.202 305.038 287.989 305.038 279.117V252.161V225.205C305.038 216.333 305.038 207.12 305.038 198.248C305.379 180.164 305.379 162.079 305.721 143.995Z" fill="#341931"/>
<path d="M303.332 131.028C303.673 151.16 304.015 171.292 304.015 191.765C304.015 202.002 304.015 211.897 304.015 222.134V252.502V282.871C304.015 293.107 304.015 303.003 304.015 313.239C304.015 333.371 303.673 353.503 303.332 373.976C302.991 353.844 302.65 333.712 302.65 313.239C302.65 303.003 302.65 293.107 302.65 282.871V252.502V222.134C302.65 211.897 302.65 202.002 302.65 191.765C302.65 171.292 302.991 151.16 303.332 131.028Z" fill="#341931"/>
<path d="M300.602 115.673C300.943 138.535 301.285 161.056 301.285 183.917C301.285 195.177 301.285 206.779 301.285 218.039V252.161V286.283C301.285 297.543 301.285 309.145 301.285 320.405C301.285 343.267 300.943 365.787 300.602 388.649C300.261 365.787 299.92 343.267 299.92 320.405C299.92 309.145 299.92 297.543 299.92 286.283V252.161V218.039C299.92 206.779 299.92 195.177 299.92 183.917C299.92 161.056 300.261 138.535 300.602 115.673Z" fill="#341931"/>
<path d="M297.872 123.521C298.214 145.018 298.555 166.515 298.555 187.671C298.555 198.248 298.555 209.167 298.555 219.745V251.82V283.894C298.555 294.472 298.555 305.391 298.555 315.969C298.555 337.466 298.214 358.963 297.872 380.118C297.531 358.621 297.19 337.125 297.19 315.969C297.19 305.391 297.19 294.472 297.19 283.894V251.82V219.745C297.19 209.167 297.19 198.248 297.19 187.671C297.531 166.515 297.531 145.018 297.872 123.521Z" fill="#341931"/>
<path d="M295.484 138.194C295.825 157.302 296.166 176.069 296.166 195.177C296.166 204.732 296.166 214.286 296.166 223.499V251.82V280.141C296.166 289.695 296.166 299.249 296.166 308.462C296.166 327.571 295.825 346.338 295.484 365.446C295.143 346.338 294.802 327.571 294.802 308.462C294.802 298.908 294.802 289.354 294.802 280.141V251.82V223.499C294.802 213.945 294.802 204.39 294.802 195.177C294.802 176.069 295.143 157.302 295.484 138.194Z" fill="#341931"/>
<path d="M292.754 148.43C293.095 165.833 293.437 182.894 293.437 200.296C293.437 208.826 293.437 217.698 293.437 226.228V252.161V278.094C293.437 286.624 293.437 295.496 293.437 304.026C293.437 321.429 293.095 338.49 292.754 355.892C292.413 338.49 292.072 321.429 292.072 304.026C292.072 295.496 292.072 286.624 292.072 278.094V252.161V226.228C292.072 217.698 292.072 208.826 292.072 200.296C292.072 182.894 292.413 165.833 292.754 148.43Z" fill="#341931"/>
<path d="M290.024 162.762C290.366 177.775 290.707 192.448 290.707 207.461C290.707 214.968 290.707 222.475 290.707 229.982V252.502V275.023C290.707 282.53 290.707 290.036 290.707 297.543C290.707 312.557 290.366 327.229 290.024 342.243C289.683 327.229 289.342 312.557 289.342 297.543C289.342 290.036 289.342 282.53 289.342 275.023V252.502V229.982C289.342 222.475 289.342 214.968 289.342 207.461C289.683 192.448 289.683 177.775 290.024 162.762Z" fill="#341931"/>
<path d="M287.636 177.775C287.977 190.059 288.318 202.343 288.318 214.968C288.318 221.11 288.318 227.252 288.318 233.394V251.82V270.246C288.318 276.388 288.318 282.53 288.318 288.672C288.318 300.955 287.977 313.239 287.636 325.864C287.295 313.581 286.953 301.297 286.953 288.672C286.953 282.53 286.953 276.388 286.953 270.246V251.82V233.394C286.953 227.252 286.953 221.11 286.953 214.968C286.953 202.684 287.295 190.4 287.636 177.775Z" fill="#341931"/>
<path d="M284.906 199.955C285.247 208.826 285.589 217.357 285.589 226.228C285.589 230.664 285.589 235.1 285.589 239.195V252.161V265.127C285.589 269.563 285.589 273.999 285.589 278.094C285.589 286.965 285.247 295.496 284.906 304.368C284.565 295.496 284.224 286.965 284.224 278.094C284.224 273.658 284.224 269.222 284.224 265.127V252.161V239.195C284.224 234.759 284.224 230.323 284.224 226.228C284.224 217.357 284.565 208.485 284.906 199.955Z" fill="#341931"/>
<path d="M282.176 217.357C282.518 223.157 282.859 228.958 282.859 234.759C282.859 237.489 282.859 240.56 282.859 243.289V251.82V260.35C282.859 263.08 282.859 266.151 282.859 268.881C282.859 274.682 282.518 280.482 282.176 286.283C281.835 280.482 281.494 274.682 281.494 268.881C281.494 266.151 281.494 263.08 281.494 260.35V251.82V243.289C281.494 240.56 281.494 237.489 281.494 234.759C281.835 228.958 281.835 223.157 282.176 217.357Z" fill="#341931"/>
<path d="M279.788 228.276C280.129 232.37 280.47 236.124 280.47 240.218C280.47 244.313 280.811 248.066 280.811 252.161C280.811 256.256 280.811 260.009 280.47 264.104C280.47 268.198 280.129 271.952 279.788 276.046C279.447 271.952 279.105 268.198 279.105 264.104C279.105 260.009 278.764 256.256 278.764 252.161C278.764 248.066 278.764 244.313 279.105 240.218C279.105 236.124 279.447 232.37 279.788 228.276Z" fill="#341931"/>
<path d="M277.058 236.806C277.399 239.195 277.741 241.924 277.741 244.313C277.741 246.702 278.082 249.431 278.082 251.82C278.082 254.208 278.082 256.938 277.741 259.327C277.741 261.715 277.399 264.445 277.058 266.833C276.717 264.445 276.376 261.715 276.376 259.327C276.376 256.938 276.034 254.208 276.034 251.82C276.034 249.431 276.034 246.702 276.376 244.313C276.376 241.924 276.717 239.536 277.058 236.806Z" fill="#341931"/>
<path d="M274.328 228.276C274.67 232.37 275.011 236.124 275.011 240.218C275.011 244.313 275.352 248.066 275.352 252.161C275.352 256.256 275.352 260.009 275.011 264.104C275.011 268.198 274.67 271.952 274.328 276.046C273.987 271.952 273.646 268.198 273.646 264.104C273.646 260.009 273.305 256.256 273.305 252.161C273.305 248.066 273.305 244.313 273.646 240.218C273.987 236.124 273.987 232.37 274.328 228.276Z" fill="#341931"/>
<path d="M271.94 213.603C272.281 220.086 272.622 226.228 272.622 232.712C272.622 235.783 272.622 239.195 272.622 242.266V251.82V261.374C272.622 264.445 272.622 267.857 272.622 270.928C272.622 277.411 272.281 283.553 271.94 290.036C271.599 283.553 271.257 277.411 271.257 270.928C271.257 267.857 271.257 264.445 271.257 261.374V251.82V242.266C271.257 239.195 271.257 235.783 271.257 232.712C271.257 226.57 271.599 220.086 271.94 213.603Z" fill="#341931"/>
<path d="M269.21 204.049C269.551 211.897 269.893 220.086 269.893 227.934C269.893 232.029 269.893 235.783 269.893 239.877V251.82V263.763C269.893 267.857 269.893 271.611 269.893 275.705C269.893 283.553 269.551 291.742 269.21 299.591C268.869 291.742 268.528 283.553 268.528 275.705C268.528 271.611 268.528 267.857 268.528 263.763V251.82V239.877C268.528 235.783 268.528 232.029 268.528 227.934C268.528 220.086 268.869 211.897 269.21 204.049Z" fill="#341931"/>
<path d="M266.48 213.603C266.822 220.086 267.163 226.228 267.163 232.712C267.163 235.783 267.163 239.195 267.163 242.266V251.82V261.374C267.163 264.445 267.163 267.857 267.163 270.928C267.163 277.411 266.821 283.553 266.48 290.036C266.139 283.553 265.798 277.411 265.798 270.928C265.798 267.857 265.798 264.445 265.798 261.374V251.82V242.266C265.798 239.195 265.798 235.783 265.798 232.712C266.139 226.57 266.139 220.086 266.48 213.603Z" fill="#341931"/>
<path d="M264.092 228.276C264.433 232.37 264.774 236.124 264.774 240.218C264.774 244.313 265.115 248.066 265.115 252.161C265.115 256.256 265.115 260.009 264.774 264.104C264.774 268.198 264.433 271.952 264.092 276.046C263.751 271.952 263.409 268.198 263.409 264.104C263.409 260.009 263.068 256.256 263.068 252.161C263.068 248.066 263.068 244.313 263.409 240.218C263.409 236.124 263.409 232.37 264.092 228.276Z" fill="#341931"/>
<path d="M261.362 236.806C261.703 239.195 262.044 241.924 262.044 244.313C262.044 246.702 262.386 249.431 262.386 251.82C262.386 254.208 262.386 256.938 262.044 259.327C262.044 261.715 261.703 264.445 261.362 266.833C261.021 264.445 260.68 261.715 260.68 259.327C260.68 256.938 260.338 254.208 260.338 251.82C260.338 249.431 260.338 246.702 260.68 244.313C260.68 241.924 261.021 239.536 261.362 236.806Z" fill="#341931"/>
<path d="M258.632 244.654C258.974 246.019 259.315 247.043 259.315 248.408C259.315 249.773 259.656 250.796 259.656 252.161C259.656 253.526 259.656 254.55 259.315 255.914C259.315 257.279 258.974 258.303 258.632 259.668C258.291 258.303 257.95 257.279 257.95 255.914C257.95 254.55 257.609 253.526 257.609 252.161C257.609 250.796 257.609 249.773 257.95 248.408C258.291 247.384 258.291 246.019 258.632 244.654Z" fill="#341931"/>
<path d="M256.244 236.806C256.585 239.195 256.926 241.924 256.926 244.313C256.926 246.702 257.267 249.431 257.267 251.82C257.267 254.208 257.267 256.938 256.926 259.327C256.926 261.715 256.585 264.445 256.244 266.833C255.903 264.445 255.561 261.715 255.561 259.327C255.561 256.938 255.22 254.208 255.22 251.82C255.22 249.431 255.22 246.702 255.561 244.313C255.561 241.924 255.561 239.536 256.244 236.806Z" fill="#341931"/>
<path d="M253.514 222.816C253.855 227.593 254.196 232.712 254.196 237.489C254.196 239.877 254.196 242.266 254.196 244.654V251.82C254.196 256.597 254.196 261.715 253.855 266.492C253.855 271.269 253.514 276.388 253.173 281.165C252.831 276.388 252.49 271.269 252.49 266.492C252.49 261.715 252.149 256.597 252.149 251.82V244.654C252.149 242.266 252.149 239.877 252.149 237.489C252.832 232.712 253.173 227.593 253.514 222.816Z" fill="#341931"/>
<path d="M250.784 208.144C251.125 215.309 251.467 222.816 251.467 229.982C251.467 233.735 251.467 237.147 251.467 240.901V251.82V262.739C251.467 266.492 251.467 269.904 251.467 273.658C251.467 280.823 251.125 288.33 250.784 295.496C250.443 288.33 250.102 280.823 250.102 273.658C250.102 269.904 250.102 266.492 250.102 262.739V251.82V240.901C250.102 237.147 250.102 233.735 250.102 229.982C250.443 222.816 250.443 215.651 250.784 208.144Z" fill="#341931"/>
<path d="M248.396 177.775C248.737 190.059 249.078 202.343 249.078 214.968C249.078 221.11 249.078 227.252 249.078 233.394V251.82V270.246C249.078 276.388 249.078 282.53 249.078 288.672C249.078 300.955 248.737 313.239 248.396 325.864C248.054 313.581 247.713 301.297 247.713 288.672C247.713 282.53 247.713 276.388 247.713 270.246V251.82V233.394C247.713 227.252 247.713 221.11 247.713 214.968C247.713 202.684 247.713 190.4 248.396 177.775Z" fill="#341931"/>
<path d="M245.666 141.606C246.007 160.032 246.348 178.458 246.348 196.884C246.348 206.096 246.348 215.309 246.348 224.522V252.161V279.8C246.348 289.013 246.348 298.226 246.348 307.439C246.348 325.864 246.007 344.29 245.666 362.716C245.325 344.29 244.984 325.864 244.984 307.439C244.984 298.226 244.984 289.013 244.984 279.8V252.161V224.522C244.984 215.309 244.984 206.096 244.984 196.884C244.983 178.458 245.325 160.032 245.666 141.606Z" fill="#341931"/>
<path d="M242.936 150.819C243.277 167.539 243.619 184.6 243.619 201.319C243.619 209.85 243.619 218.039 243.619 226.57V251.82V277.07C243.619 285.601 243.619 293.79 243.619 302.32C243.619 319.04 243.277 336.101 242.936 352.821C242.595 336.101 242.254 319.04 242.254 302.32C242.254 293.79 242.254 285.601 242.254 277.07V251.82V226.57C242.254 218.039 242.254 209.85 242.254 201.319C242.254 184.6 242.595 167.539 242.936 150.819Z" fill="#341931"/>
<path d="M240.206 131.028C240.548 151.16 240.889 171.292 240.889 191.765C240.889 202.002 240.889 211.897 240.889 222.134V252.502V282.871C240.889 293.107 240.889 303.003 240.889 313.239C240.889 333.371 240.548 353.503 240.206 373.976C239.865 353.844 239.524 333.712 239.524 313.239C239.524 303.003 239.524 293.107 239.524 282.871V252.502V222.134C239.524 211.897 239.524 202.002 239.524 191.765C239.865 171.292 239.865 151.16 240.206 131.028Z" fill="#341931"/>
<path d="M237.818 140.924C238.159 159.349 238.5 178.116 238.5 196.542C238.5 205.755 238.5 214.968 238.5 224.522V252.502V280.482C238.5 289.695 238.5 298.908 238.5 308.462C238.5 326.888 238.159 345.655 237.818 364.081C237.477 345.655 237.135 326.888 237.135 308.462C237.135 299.249 237.135 290.036 237.135 280.482V252.502V224.522C237.135 215.309 237.135 206.096 237.135 196.542C237.135 177.775 237.477 159.349 237.818 140.924Z" fill="#341931"/>
<path d="M235.088 123.521C235.429 145.018 235.771 166.515 235.771 187.671C235.771 198.248 235.771 209.167 235.771 219.745V251.82V283.894C235.771 294.472 235.771 305.391 235.771 315.969C235.771 337.466 235.429 358.963 235.088 380.118C234.747 358.621 234.406 337.125 234.406 315.969C234.406 305.391 234.406 294.472 234.406 283.894V251.82V219.745C234.406 209.167 234.406 198.248 234.406 187.671C234.406 166.515 234.747 145.018 235.088 123.521Z" fill="#341931"/>
<path d="M232.358 112.602C232.7 124.204 232.7 135.805 232.7 147.407L233.041 182.211C233.041 205.414 233.382 228.617 233.382 251.82C233.382 275.023 233.382 298.226 233.041 321.429L232.7 356.233C232.7 367.834 232.358 379.436 232.358 391.037C232.017 379.436 232.017 367.834 232.017 356.233L231.676 321.429C231.676 298.226 231.335 275.023 231.335 251.82C231.335 228.617 231.335 205.414 231.676 182.211L232.017 147.407C232.358 135.805 232.358 124.204 232.358 112.602Z" fill="#341931"/>
<path d="M229.97 131.028C230.311 151.16 230.652 171.292 230.652 191.765C230.652 202.002 230.652 211.897 230.652 222.134V252.502V282.871C230.652 293.107 230.652 303.003 230.652 313.239C230.652 333.371 230.311 353.503 229.97 373.976C229.629 353.844 229.287 333.712 229.287 313.239C229.287 303.003 229.287 293.107 229.287 282.871V252.502V222.134C229.287 211.897 229.287 202.002 229.287 191.765C229.287 171.292 229.629 151.16 229.97 131.028Z" fill="#341931"/>
<path d="M227.24 154.914C227.581 170.951 227.922 187.329 227.922 203.367C227.922 211.556 227.922 219.404 227.922 227.593V251.82V276.046C227.922 284.236 227.922 292.084 227.922 300.273C227.922 316.31 227.581 332.689 227.24 348.726C226.899 332.689 226.558 316.31 226.558 300.273C226.558 292.084 226.558 284.236 226.558 276.046V251.82V227.593C226.558 219.404 226.558 211.556 226.558 203.367C226.558 187.329 226.899 171.292 227.24 154.914Z" fill="#341931"/>
<path d="M224.51 187.671C224.852 198.248 225.193 209.167 225.193 219.745C225.193 225.205 225.193 230.323 225.193 235.783V251.82V267.857C225.193 273.317 225.193 278.435 225.193 283.894C225.193 294.472 224.852 305.391 224.51 315.969C224.169 305.391 223.828 294.472 223.828 283.894C223.828 278.435 223.828 273.317 223.828 267.857V251.82V235.783C223.828 230.323 223.828 225.205 223.828 219.745C224.169 209.167 224.169 198.248 224.51 187.671Z" fill="#341931"/>
<path d="M222.122 172.316C222.463 185.623 222.804 198.931 222.804 212.238C222.804 218.722 222.804 225.546 222.804 232.029V251.82V271.611C222.804 278.094 222.804 284.918 222.804 291.401C222.804 304.709 222.463 318.016 222.122 331.324C221.781 318.016 221.439 304.709 221.439 291.401C221.439 284.918 221.439 278.094 221.439 271.611V251.82V232.029C221.439 225.546 221.439 218.722 221.439 212.238C221.439 198.931 221.781 185.623 222.122 172.316Z" fill="#341931"/>
<path d="M219.392 153.549C219.733 169.927 220.074 186.306 220.074 202.684C220.074 210.874 220.074 219.063 220.074 227.252V251.82V276.388C220.074 284.577 220.074 292.766 220.074 300.955C220.074 317.334 219.733 333.712 219.392 350.091C219.051 333.712 218.71 317.334 218.71 300.955C218.71 292.766 218.71 284.577 218.71 276.388V251.82V227.252C218.71 219.063 218.71 210.873 218.71 202.684C218.71 186.647 219.051 170.268 219.392 153.549Z" fill="#341931"/>
<path d="M216.662 172.316C217.004 185.623 217.345 198.931 217.345 212.238C217.345 218.722 217.345 225.546 217.345 232.029V251.82V271.611C217.345 278.094 217.345 284.918 217.345 291.401C217.345 304.709 217.004 318.016 216.662 331.324C216.321 318.016 215.98 304.709 215.98 291.401C215.98 284.918 215.98 278.094 215.98 271.611V251.82V232.029C215.98 225.546 215.98 218.722 215.98 212.238C216.321 198.931 216.321 185.623 216.662 172.316Z" fill="#341931"/>
<path d="M214.274 199.955C214.615 208.826 214.956 217.357 214.956 226.228C214.956 230.664 214.956 235.1 214.956 239.195V252.161V265.127C214.956 269.563 214.956 273.999 214.956 278.094C214.956 286.965 214.615 295.496 214.274 304.368C213.933 295.496 213.591 286.965 213.591 278.094C213.591 273.658 213.591 269.222 213.591 265.127V252.161V239.195C213.591 234.759 213.591 230.323 213.591 226.228C213.591 217.357 213.933 208.485 214.274 199.955Z" fill="#341931"/>
<path d="M211.544 222.816C211.885 227.593 212.227 232.712 212.227 237.489C212.227 239.877 212.227 242.266 212.227 244.654V251.82C212.227 256.597 212.227 261.715 211.885 266.492C211.885 271.269 211.544 276.388 211.203 281.165C210.862 276.388 210.52 271.269 210.52 266.492C210.52 261.715 210.179 256.597 210.179 251.82V244.654C210.179 242.266 210.179 239.877 210.179 237.489C210.862 232.712 211.203 227.593 211.544 222.816Z" fill="#341931"/>
<path d="M208.814 236.806C209.156 239.195 209.497 241.924 209.497 244.313C209.497 246.702 209.838 249.431 209.838 251.82C209.838 254.208 209.838 256.938 209.497 259.327C209.497 261.715 209.156 264.445 208.814 266.833C208.473 264.445 208.132 261.715 208.132 259.327C208.132 256.938 207.791 254.208 207.791 251.82C207.791 249.431 207.791 246.702 208.132 244.313C208.473 241.924 208.473 239.536 208.814 236.806Z" fill="#341931"/>
<path d="M206.426 225.887C206.767 230.323 207.108 234.759 207.108 239.195C207.108 241.242 207.108 243.631 207.108 245.678V252.161C207.108 256.597 207.108 261.033 206.767 265.469C206.767 269.904 206.426 274.34 206.085 278.776C205.743 274.34 205.402 269.904 205.402 265.469C205.402 261.033 205.061 256.597 205.061 252.161V245.678C205.061 243.631 205.061 241.242 205.061 239.195C205.743 234.418 206.085 229.982 206.426 225.887Z" fill="#341931"/>
<path d="M203.696 212.238C204.037 218.722 204.378 225.546 204.378 232.029C204.378 235.441 204.378 238.512 204.378 241.924V251.82V261.715C204.378 265.127 204.378 268.198 204.378 271.611C204.378 278.094 204.037 284.918 203.696 291.401C203.355 284.918 203.014 278.094 203.014 271.611C203.014 268.198 203.014 265.127 203.014 261.715V251.82V241.924C203.014 238.512 203.014 235.441 203.014 232.029C203.014 225.546 203.355 218.722 203.696 212.238Z" fill="#341931"/>
<path d="M200.966 199.955C201.307 208.826 201.649 217.357 201.649 226.228C201.649 230.664 201.649 235.1 201.649 239.195V252.161V265.127C201.649 269.563 201.649 273.999 201.649 278.094C201.649 286.965 201.307 295.496 200.966 304.368C200.625 295.496 200.284 286.965 200.284 278.094C200.284 273.658 200.284 269.222 200.284 265.127V252.161V239.195C200.284 234.759 200.284 230.323 200.284 226.228C200.625 217.357 200.625 208.485 200.966 199.955Z" fill="#341931"/>
<path d="M198.578 208.826C198.919 215.992 199.26 223.157 199.26 230.664C199.26 234.418 199.26 237.83 199.26 241.583V252.502V263.421C199.26 267.175 199.26 270.587 199.26 274.34C199.26 281.506 198.919 288.671 198.578 296.178C198.236 289.013 197.895 281.847 197.895 274.34C197.895 270.587 197.895 267.175 197.895 263.421V252.502V241.583C197.895 237.83 197.895 234.418 197.895 230.664C197.895 223.157 198.236 215.992 198.578 208.826Z" fill="#341931"/>
<path d="M195.848 219.063C196.189 224.522 196.53 229.982 196.53 235.441C196.53 238.171 196.53 240.901 196.53 243.631V251.82V260.009C196.53 262.739 196.53 265.469 196.53 268.198C196.53 273.658 196.189 279.117 195.848 284.577C195.507 279.117 195.166 273.658 195.166 268.198C195.166 265.469 195.166 262.739 195.166 260.009V251.82V243.631C195.166 240.901 195.166 238.171 195.166 235.441C195.165 229.982 195.507 224.522 195.848 219.063Z" fill="#341931"/>
<path d="M193.118 225.887C193.459 230.323 193.801 234.759 193.801 239.195C193.801 241.242 193.801 243.631 193.801 245.678V252.161C193.801 256.597 193.801 261.033 193.459 265.469C193.459 269.904 193.118 274.34 192.777 278.776C192.436 274.34 192.095 269.904 192.095 265.469C192.095 261.033 191.753 256.597 191.753 252.161V245.678C191.753 243.631 191.753 241.242 191.753 239.195C192.777 234.418 192.777 229.982 193.118 225.887Z" fill="#341931"/>
<path d="M190.73 234.076C191.071 237.147 191.412 240.218 191.412 242.948C191.412 246.019 191.753 249.09 191.753 251.82C191.753 254.891 191.753 257.962 191.412 260.692C191.412 263.762 191.071 266.833 190.73 269.563C190.388 266.492 190.047 263.421 190.047 260.692C190.047 257.621 189.706 254.55 189.706 251.82C189.706 248.749 189.706 245.678 190.047 242.948C190.047 240.218 190.388 237.147 190.73 234.076Z" fill="#341931"/>
<path d="M188 240.56C188.341 242.607 188.682 244.313 188.682 246.36C188.682 248.408 189.024 250.114 189.024 252.161C189.024 254.208 189.024 255.914 188.682 257.962C188.682 260.009 188.341 261.715 188 263.762C187.659 261.715 187.318 260.009 187.318 257.962C187.318 255.914 186.976 254.208 186.976 252.161C186.976 250.114 186.976 248.408 187.318 246.36C187.318 244.313 187.659 242.607 188 240.56Z" fill="#341931"/>
<path d="M373.964 323.476C373.623 311.533 373.282 299.591 373.282 287.989C373.282 282.188 373.282 276.046 373.282 270.246V252.502V234.759C373.282 228.958 373.282 222.816 373.282 217.015C373.282 205.073 373.623 193.13 373.964 181.529C374.306 193.471 374.647 205.414 374.647 217.015C374.647 222.816 374.647 228.958 374.647 234.759V252.502V270.246C374.647 276.046 374.647 282.188 374.647 287.989C374.647 299.591 374.306 311.533 373.964 323.476Z" fill="#341931"/>
<path d="M371.235 349.409C370.893 333.371 370.552 316.993 370.552 300.955C370.552 292.766 370.552 284.918 370.552 276.729V252.502V228.276C370.552 220.086 370.552 212.238 370.552 204.049C370.552 188.012 370.893 171.633 371.235 155.596C371.576 171.633 371.917 188.012 371.917 204.049C371.917 212.238 371.917 220.086 371.917 228.276V252.502V276.729C371.917 284.918 371.917 292.766 371.917 300.955C371.917 316.993 371.576 333.03 371.235 349.409Z" fill="#341931"/>
<path d="M368.846 360.328C368.505 342.243 368.164 324.158 368.164 306.074C368.164 297.202 368.164 287.989 368.164 279.117V252.161V225.205C368.164 216.333 368.164 207.12 368.164 198.248C368.164 180.164 368.505 162.079 368.846 143.995C369.187 162.079 369.529 180.164 369.529 198.248C369.529 207.12 369.529 216.333 369.529 225.205V252.161V279.117C369.529 287.989 369.529 297.202 369.529 306.074C369.187 324.158 369.187 342.243 368.846 360.328Z" fill="#341931"/>
<path d="M366.116 373.294C365.775 353.162 365.434 333.03 365.434 312.557C365.434 302.32 365.434 292.425 365.434 282.188V251.82V221.451C365.434 211.215 365.434 201.319 365.434 191.083C365.434 170.951 365.775 150.819 366.116 130.346C366.458 150.478 366.799 170.61 366.799 191.083C366.799 201.319 366.799 211.215 366.799 221.451V251.82V282.188C366.799 292.425 366.799 302.32 366.799 312.557C366.799 333.03 366.458 353.162 366.116 373.294Z" fill="#341931"/>
<path d="M363.387 388.649C363.045 365.787 362.704 343.267 362.704 320.405C362.704 309.145 362.704 297.543 362.704 286.283V252.161V218.039C362.704 206.779 362.704 195.177 362.704 183.917C362.704 161.055 363.045 138.535 363.387 115.673C363.728 138.535 364.069 161.055 364.069 183.917C364.069 195.177 364.069 206.779 364.069 218.039V252.161V286.283C364.069 297.543 364.069 309.145 364.069 320.405C364.069 342.925 363.728 365.787 363.387 388.649Z" fill="#341931"/>
<path d="M360.998 380.801C360.657 359.304 360.316 337.807 360.316 316.652C360.316 306.074 360.316 295.155 360.316 284.577V252.502V220.428C360.316 209.85 360.316 198.931 360.316 188.353C360.316 166.856 360.657 145.359 360.998 124.204C361.339 145.701 361.681 167.197 361.681 188.353C361.681 198.931 361.681 209.85 361.681 220.428V252.502V284.577C361.681 295.155 361.681 306.074 361.681 316.652C361.339 337.807 361.339 359.304 360.998 380.801Z" fill="#341931"/>
<path d="M358.268 366.128C357.927 347.02 357.586 328.253 357.586 309.145C357.586 299.591 357.586 290.036 357.586 280.823V252.502V224.181C357.586 214.627 357.586 205.073 357.586 195.86C357.586 176.752 357.927 157.984 358.268 138.876C358.61 157.984 358.951 176.752 358.951 195.86C358.951 205.414 358.951 214.968 358.951 224.181V252.502V280.823C358.951 290.378 358.951 299.932 358.951 309.145C358.61 327.912 358.61 347.02 358.268 366.128Z" fill="#341931"/>
<path d="M355.539 355.892C355.197 338.49 354.856 321.429 354.856 304.026C354.856 295.496 354.856 286.624 354.856 278.094V252.161V226.228C354.856 217.698 354.856 208.826 354.856 200.296C354.856 182.894 355.197 165.833 355.539 148.43C355.88 165.833 356.221 182.894 356.221 200.296C356.221 208.826 356.221 217.698 356.221 226.228V252.161V278.094C356.221 286.624 356.221 295.496 356.221 304.026C356.221 321.087 355.88 338.49 355.539 355.892Z" fill="#341931"/>
<path d="M352.809 341.561C352.468 326.547 352.126 311.874 352.126 296.861C352.126 289.354 352.126 281.847 352.126 274.34V251.82V229.299C352.126 221.793 352.126 214.286 352.126 206.779C352.126 191.765 352.468 177.093 352.809 162.079C353.15 177.093 353.491 191.765 353.491 206.779C353.491 214.286 353.491 221.793 353.491 229.299V251.82V274.34C353.491 281.847 353.491 289.354 353.491 296.861C353.491 311.874 353.15 326.547 352.809 341.561Z" fill="#341931"/>
<path d="M350.42 326.206C350.079 313.922 349.738 301.638 349.738 289.013C349.738 282.871 349.738 276.729 349.738 270.587V252.161V233.735C349.738 227.593 349.738 221.451 349.738 215.309C349.738 203.025 350.079 190.742 350.42 178.116C350.762 190.4 351.103 202.684 351.103 215.309C351.103 221.451 351.103 227.593 351.103 233.735V252.161V270.587C351.103 276.729 351.103 282.871 351.103 289.013C350.762 301.638 350.762 313.922 350.42 326.206Z" fill="#341931"/>
<path d="M347.69 304.368C347.349 295.496 347.008 286.965 347.008 278.094C347.008 273.658 347.008 269.222 347.008 265.127V252.161V239.195C347.008 234.759 347.008 230.323 347.008 226.228C347.008 217.357 347.349 208.826 347.69 199.954C348.032 208.826 348.373 217.357 348.373 226.228C348.373 230.664 348.373 235.1 348.373 239.195V252.161V265.127C348.373 269.563 348.373 273.999 348.373 278.094C348.373 286.965 348.032 295.837 347.69 304.368Z" fill="#341931"/>
<path d="M344.961 286.965C344.62 281.165 344.278 275.364 344.278 269.563C344.278 266.833 344.278 263.763 344.278 261.033V252.502V243.972C344.278 241.242 344.278 238.171 344.278 235.441C344.278 229.641 344.62 223.84 344.961 218.039C345.302 223.84 345.643 229.641 345.643 235.441C345.643 238.171 345.643 241.242 345.643 243.972V252.502V261.033C345.643 263.763 345.643 266.833 345.643 269.563C345.643 275.364 345.643 281.165 344.961 286.965Z" fill="#341931"/>
<path d="M342.572 275.705C342.231 271.611 341.89 267.857 341.89 263.763C341.89 259.668 341.549 255.914 341.549 251.82C341.549 247.725 341.549 243.972 341.89 239.877C341.89 235.783 342.231 232.029 342.572 227.934C342.914 232.029 343.255 235.783 343.255 239.877C343.255 243.972 343.596 247.725 343.596 251.82C343.596 255.914 343.596 259.668 343.255 263.763C342.913 267.857 342.913 271.952 342.572 275.705Z" fill="#341931"/>
<path d="M339.843 267.516C339.501 265.127 339.16 262.398 339.16 260.009C339.16 257.621 338.819 254.891 338.819 252.502C338.819 250.114 338.819 247.384 339.16 244.995C339.16 242.607 339.501 239.877 339.843 237.489C340.184 239.877 340.525 242.607 340.525 244.995C340.525 247.384 340.866 250.114 340.866 252.502C340.866 254.891 340.866 257.621 340.525 260.009C340.525 262.398 340.184 264.786 339.843 267.516Z" fill="#341931"/>
<path d="M337.113 275.705C336.772 271.611 336.43 267.857 336.43 263.763C336.43 259.668 336.089 255.914 336.089 251.82C336.089 247.725 336.089 243.972 336.43 239.877C336.43 235.783 336.772 232.029 337.113 227.934C337.454 232.029 337.795 235.783 337.795 239.877C337.795 243.972 338.136 247.725 338.136 251.82C338.136 255.914 338.136 259.668 337.795 263.763C337.795 267.857 337.795 271.952 337.113 275.705Z" fill="#341931"/>
<path d="M334.724 290.378C334.383 283.894 334.042 277.753 334.042 271.269C334.042 268.198 334.042 264.786 334.042 261.715V252.161V242.607C334.042 239.536 334.042 236.124 334.042 233.053C334.042 226.57 334.383 220.428 334.724 213.944C335.065 220.428 335.407 226.57 335.407 233.053C335.407 236.124 335.407 239.536 335.407 242.607V252.161V261.715C335.407 264.786 335.407 268.198 335.407 271.269C335.065 277.752 335.065 284.236 334.724 290.378Z" fill="#341931"/>
<path d="M331.994 300.273C331.653 292.425 331.312 284.236 331.312 276.388C331.312 272.293 331.312 268.54 331.312 264.445V252.502V240.56C331.312 236.465 331.312 232.712 331.312 228.617C331.312 220.769 331.653 212.58 331.994 204.732C332.336 212.58 332.677 220.769 332.677 228.617C332.677 232.712 332.677 236.465 332.677 240.56V252.502V264.445C332.677 268.54 332.677 272.293 332.677 276.388C332.677 284.236 332.336 292.084 331.994 300.273Z" fill="#341931"/>
</g>
</svg>
